<svg xmlns="http://www.w3.org/2000/svg" viewBox="21.569999999999993 86.74000000000001 531.87 431.40999999999997"> <svg xmlns="http://www.w3.org/2000/svg" id="Layer_1" dataName="Layer 1" viewBox="367.7391357421875 316.1298522949219 215.03082275390625 318.3832092285156" height="192" width="129" y="156" x="222" preserveAspectRatio="xMinYMin" style="overflow: visible;"><path class="cls-1" d="M580.07,525.1c-1.1-6.36-2.22-13.1-4.23-18.78l0-.09c-.35-1.38-.72-2.75-1.09-4.12-.27-1.12-.54-2.25-.81-3.21a55.25,55.25,0,0,0-2.14-7.31l-.48-1.19c-3.2-10.23-6.81-20.12-10.7-29.62.66,1,1.19,1.56,1.56,1.64-4.15-10-8.81-19.66-13.6-28.9-3.67-6.94-7.15-13.56-10.56-20.33-.67-1.39-1.88-3.21-2.85-4.81l.06.07h0l.15.19,0,.05h0l0,0-.12-.12c-1.88-3-3.88-6.25-5.85-9.15-4.08-6.73-8.06-12.91-11.81-18.5-.64-1.63-1.21-3.05-1.76-4.46a45.63,45.63,0,0,0-3.92-5.11l-1.4-1.79L508.68,367q-2-2.85-4-5.89l-5.29-8c-2-2-4.47-4.91-7.27-8.26l-11,15.34c-1.18,1.24-2.23,2.33-3.6,3.95l-6.42,7.66c-1.3,1.61-2.62,3.38-4,5.45q-3.28,4.29-6.56,8.86l-1.71,2c-.39.35-.39.15-.12-.42l-3.7,5.22a6.73,6.73,0,0,0-.68,1c-4.67,6.59-9.26,13.21-13.58,20.61,1-1,1.93-1.93,2.74-2.65-4.07,6.64-8,13.41-11.64,20.18a10.44,10.44,0,0,1-.92,1.12c-.39.41-.9,1.08-1.46,1.77-2.2,3.82-4.24,8-6.37,12.11a42.4,42.4,0,0,0-2.68,6.68,29.92,29.92,0,0,1-2.27,4.95,82.21,82.21,0,0,0-3.64,7.61c-1.09,2.48-1.79,5.07-2.71,7.59s-1.66,5.11-2.35,7.73c-.43,1.57-.42,2.14-.21,2.19s.11.22.14.44a99.35,99.35,0,0,0-3.75,18.91,3.88,3.88,0,0,1-.14-1.39c0-1,.19-2.44.27-3.61.09-1.44,0-2-.29-1.11a18.91,18.91,0,0,0-.65,2.77c-.77,6.21-1,12.77,0,15.11a12.4,12.4,0,0,1,.24,2.32,125.88,125.88,0,0,0,3.41,30.75c.09.53.17,1.05.25,1.56a34.48,34.48,0,0,0,1.57,5.47c.62,1.58,1.31,3.17,2,4.74a62,62,0,0,0,14.44,21.61,42.18,42.18,0,0,0,5.22,5.36,9.45,9.45,0,0,0,1.21.84c.23.1.36,0,.09-.21-.79-.78-1.33-1.4-1.93-2.08a57.83,57.83,0,0,0,13.44,7.6l1.35.87c.38.23,1.07.57,1.7.87a17,17,0,0,0,2,.89,18.43,18.43,0,0,0,2.72.55c.54,0,.63-.2.47-.45a85.84,85.84,0,0,0,16.51,2.6c-1.38.06-2.79,0-4.2-.11a32.49,32.49,0,0,1-3.68-.35,65.68,65.68,0,0,0,11.74,1.15h.09a20.6,20.6,0,0,0,3.15-.28h.46l.31,0h.14c-.29,0-.19,0-.19,0l.19,0a12.19,12.19,0,0,0,1.33-.13s0,0-.07,0c28.82.15,43-8.65,52-19.59.47-.36,1-.78,1.65-1.3a48.44,48.44,0,0,0,7.11-10c.77-1.39,1.19-2.15,1.51-2.71,2.23-3.34,3.36-6.68,4.79-10.82,11.76-19.14-1.15-50-1.15-50l-.11.09-1.45,1.24a25.08,25.08,0,0,0-1.47-3.26,36.79,36.79,0,0,1-1.85-6.23,33.84,33.84,0,0,0-4-11.08c-1.17-2.41-2.56-4.67-3.71-7s-2.28-4.55-3.29-6.73c-2.12-4.92-5.67-10.24-8.71-15.11a102.36,102.36,0,0,0-6.9-9.08c-.23-.27-.5-.19-.36.19.27.78.37,1.14.19,1a2.63,2.63,0,0,1-.51-.5l-1.3-1.56c-4.76-6-7-8.94-9.15-12l-8-8.7-.51-.61-.82-.17a12.23,12.23,0,0,1-1,.74c-.32.2-.06-.18.51-.86l-.12,0-3.9,3.71c-1.67,1.56-3.17,2.68-4.7,4.3a111.67,111.67,0,0,0-7.8,9.47l-1.86,2.62c-.55.79-1.26,1.81-1.44,2.19-.59,1-1.13,2-1.59,2.86a100,100,0,0,1-5.63,9,13.78,13.78,0,0,1-1.69,2.05c-.25.15-.19-.39.21-1.13,1.08-1.94,2.43-4.14,3.74-6.2-3.91,4.05-4.11,4.31-7,9.85-2,4-4,7.61-6.45,11.94-1.2,2.07-2.37,4.29-3.47,6.55.14.05.24.19.47,0s.77-1.08,1.12-1.45c.8-.84.4.55,0,2.27a26.59,26.59,0,0,1-2.32,6,17.48,17.48,0,0,0-1.87,3.87,37.48,37.48,0,0,0-1.73,6,25.2,25.2,0,0,0-.61,8.21h0a37,37,0,0,0,.88,10.71,42.46,42.46,0,0,0,3.1,13.68A45.9,45.9,0,0,0,458,543.61l.94.89a39.07,39.07,0,0,0,4.82,5.32c-.56-.35-1.1-.71-1.61-1.06-1.83-1.3-2.91-2.17-4.09-2.92-.5-.33-.42,0-.17.48,0,.08.6.73,1.45,1.66.46.48.82,1,1.53,1.61a25.89,25.89,0,0,0,2.24,1.91,32.92,32.92,0,0,0,7.41,4.35,35.73,35.73,0,0,0,19.13,1.88c6.3-1.07,11.22-3.46,13.93-4.3a7.93,7.93,0,0,0,1.44-.71c-.1-.12-.21-.25-.3-.38-.51-.72-1-1.39-1.46-2.06a6.31,6.31,0,0,1-1.06-1.07.8.8,0,0,1-.45-.7,6.78,6.78,0,0,1-.81-2.43c-.18-.32-.35-.64-.5-1l-.32-.5a1.15,1.15,0,0,1-.46-1c-.09-.21-.16-.44-.23-.66s-.32-.67-.49-1a7.07,7.07,0,0,1-.43-.93,31.5,31.5,0,0,1-8.88-1.51c-3.27-1.16-5.32-3.33-6-5.47a1.84,1.84,0,0,0-1.31.44c-.42.46-.45.54-1.33.33a11.36,11.36,0,0,1-4.48-2.07,10.19,10.19,0,0,1-.8-.71l-1.21-1.31c-.4-.45-.85-.88-1.23-1.33l-1-1.41a46.21,46.21,0,0,1-3.73-8.21,26.8,26.8,0,0,1-1-8.41,33.56,33.56,0,0,1,1.85-9.22c.6-1.77,1.13-4,1.58-5.84.34-1.31.46-2.39.88-3.7a23.56,23.56,0,0,1,2.41-5.79c2.48-4.23,5.07-9,7.85-13.54a149.52,149.52,0,0,1,8.7-12.65l.54-.7.39-.44a6.33,6.33,0,0,1,.78-.72,2.39,2.39,0,0,0,.23-.22l.21.18a2,2,0,0,0,.46.23,1.08,1.08,0,0,1,.62.48,3.59,3.59,0,0,0,.26.46l.68.87c1.35,1.66,2.56,3.4,3.77,5.14a58.92,58.92,0,0,1,6.72,11.35c.24.53,1,2,1.48,2.86,4.59,7.41,7.8,16,11.35,23,3.07,7.61,4.53,15.54,5.72,23.36.14,1,.27,2.1.35,3.23s0,2.24,0,3.2a104.17,104.17,0,0,1-1.13,12.63l-.49,3.06-.68,2.4a14.88,14.88,0,0,1-.64,2.36c-.34.71-.65,1.44-.94,2.18l-.44,1.12-.72,1-1.38,2.07c-1.24,1.2-2.2,2.56-3.45,3.67a16.06,16.06,0,0,1-4.47,3.06c-1.15.63-2.49,1.35-3.84,1.93a47.46,47.46,0,0,1-7.09,3c-1.23.34-2.44.62-3.65.89l-3.76.64c-.94.19-2.36.4-3.17.64a36.8,36.8,0,0,1-10.79,1.27c-.33,0-.43,0-1.54,0l-2.11.18c-.79.08-1.58.2-2.12.31a33.89,33.89,0,0,1-10.82-.24,45.06,45.06,0,0,1-11.33-4.93,9.49,9.49,0,0,1-2.74-2.47,5.75,5.75,0,0,0-1.93-2.17A29,29,0,0,1,439.8,560c-.72-1-1.75-2.3-2.29-3.16a31.21,31.21,0,0,1-1.89-3,33.6,33.6,0,0,1-3-6.9,23.37,23.37,0,0,0-1-2.84,33.7,33.7,0,0,1-2.45-7.3,23,23,0,0,1-1.23-5.1,23.64,23.64,0,0,1-.23-5c0-4.07,0-9.55-.32-14.36a57.24,57.24,0,0,1,1.86-18c.67-2.92,1.67-6.76,2.55-10.2s2-6.91,3.26-10.26a14.27,14.27,0,0,1,2.35-4.5,2.3,2.3,0,0,0,.39-.35,17.91,17.91,0,0,0,1.77-3.82c.46-3.31,2.35-8.26,5.73-14.11,1.73-3.22,3.56-6.08,5.16-9.54.71-1.53,1.85-3.38,2.63-4.89a56.75,56.75,0,0,1,4.63-7.55,43.13,43.13,0,0,0,3.77-6.05c1.69-3.47,4-7.17,6.3-10.92A88.86,88.86,0,0,1,475,401.88c2.14-2.39,4.11-5.32,6.32-8.29.73-1,1.53-2.1,2.17-3.08A18.92,18.92,0,0,0,485,388a19.33,19.33,0,0,1,1.85-3.5l1.45-2.18c.36-.52.74-1,1.13-1.6a4.53,4.53,0,0,1,1-1.06c.24-.1.46,0,.62.28s.23.37.34.26a2.25,2.25,0,0,1,.24-.21.65.65,0,0,0,.11.15c.15.14.32.09.59-.4s.45-.41.73,0l4.87,7.31c.39.6.93,1.83.77,1.69-1.1-1-1.49-1.13.89,2.28,1,1.52,2.14,2.88,3.14,4.39,2,3.15,3.23,5.81,5.53,9.33.74,1.11,1.48,2.6,2.21,4,.22-.39.39-.84.8-.92a9.74,9.74,0,0,1,1.47,1.9,92.6,92.6,0,0,1,4.93,9.17c1.22,2.9,3.41,6.95,5.22,10.58a16.16,16.16,0,0,0,3.33,5.07c.17.16.42.51.72.87,2.78,6,5.27,12.46,8.82,19.17.87,1.49,1.7,2.88,2.56,4.52a20.22,20.22,0,0,0,1.84,3.22,108.72,108.72,0,0,0,3.11,10.44c1.43,4.25,3.39,7.62,4.83,11.66l1.88,5.2a18.6,18.6,0,0,0,1.74,3.6,15.86,15.86,0,0,1,1.59,3.21c2.46,7.2,5.11,14.5,5.79,22,.22,1.71.73,4.54,1.06,6.87.47,2.66.8,5.34,1.06,8s.53,5.35.7,8a31.86,31.86,0,0,1-.1,6.35c-.15,1.67,0,3.15.33,2.83s.73-1.32.89,1.08c.11,4.41,0,9.73-.9,13-.32,1.09-.47.93-.28-.36.09-1.13,0-2-.15-1.46s-.32,1.51-.5,2.24c-1.43,8.52-6.28,16.47-13.2,23.26a42.94,42.94,0,0,1-3.42,3.86,48.6,48.6,0,0,1-5.13,3.9,54.72,54.72,0,0,1-5.54,3.33c-4.16,1.83-10.25,4.44-12.24,4.07a17.06,17.06,0,0,0-2.45.74,12.82,12.82,0,0,0-1.44.55c-.4.18-1,.49-.87.51.9.16,1.94.29,3.21.43-4.08,1.61-7.17,2.92-9.91,4.16a32.31,32.31,0,0,1-6.33,1.9c-3.38.72-6.8,1.28-10.23,1.68a46.14,46.14,0,0,1-14.19,2.06c-2.18,0-4.36,0-6.54-.12l-.24-.17,1-.11c-6-.45-12.43-1.1-19.14-2.13a118.16,118.16,0,0,1-11.81-2.41l-5.58-1.73a33.18,33.18,0,0,1-5.4-1.93c-3.89-1.78-6.79-2.39-8.82-3.19L418,600a53.83,53.83,0,0,0-4.41-3.74c-1.08-.66-2.27-1.93-3-2.33a13.25,13.25,0,0,0-2.38-1.13c1.37,1.5,2.39,2.61,3.38,3.71,2.37,1.85,4.53,4,7,5.67a4.61,4.61,0,0,1,1.07,1,24,24,0,0,1-2.64-1.33c-4.86-3.91-9.31-7.83-13-13.09a27.78,27.78,0,0,1-2.08-3c-.45-1-.82-2-1.17-2.85-.58-1.58-1.85-3.62-2.6-5.32-.81-1.51-1.61-3.17-2.43-4.83-.65-1.78-1.3-3.57-1.93-5.27-.19-.5-.39-1-.56-1.37a16.13,16.13,0,0,1-1.24-4.67l-2-11.76c-.71-3.59-.49-8.29-1.47-11.2-.27-3.59-.53-7.09-.79-10.64s-.22-7.26-.17-11.09a39.73,39.73,0,0,1,.52-6.4,73.18,73.18,0,0,0,1.08-9.25c.14-1.91.32-3.47.52-4.86.11-.68.22-1.33.32-2s.27-1,.4-1.55c.19-1.85.13-3.27-.16-2.71-.43.84-.9,2.57-1.37,3.87-.06.17-.14-.09-.17-.36a7.57,7.57,0,0,1,0-1.26,41.49,41.49,0,0,1,2-9.25c1-5,2.65-10,4.14-14.77,1.81-6.27,4.36-10.95,6.75-16.48.21-.54.58-1.29.69-1.64a8.17,8.17,0,0,0,.49-1.92c-.13-.25-.54.07-.85.17.86-2.32,1.85-4.62,2.9-6.9a7.39,7.39,0,0,0,4.67-5,115.37,115.37,0,0,1,3.88-11.18c.83-1.24,1.53-2.09,2.34-3.22a70.09,70.09,0,0,0,4.6-7.6c1.57-2.78,2.81-5.28,3.81-7.48a51.47,51.47,0,0,1,4.47-7.66c2.05-3,4.29-6.45,6.18-8.85,3.88-5,6.76-10.31,10.23-15.35.38-.56.5-1.22.91-2a23.93,23.93,0,0,1,1.46-2.54c3.27-4.13,7.64-10.61,10-12.12a12.24,12.24,0,0,0,1.89-2.65c.11-.21-.16,0-.32.09-.69.46-.27-.5.9-2.12,3.85-5.36,7.63-10.15,10.67-12.78.65-.56,2-2.23,3.16-3.51,2.87-4.92,6.68-10.57,8.82-14.65a25.33,25.33,0,0,0-2.06-1.67c-.75-.51-2-.44-2.36-1.41a.22.22,0,0,0-.26-.14l-6.32-3.48a13,13,0,0,1-2.21,1.24l-.17.16-.12,0-.16.05a11.78,11.78,0,0,1-3.12,1.38l-.63.63a3.65,3.65,0,0,0,.2-.53,11.25,11.25,0,0,1-1.66.25c-.55.58-1.2,1.34-1.81,2.05a10.94,10.94,0,0,0-2.11,3.27v0a193.82,193.82,0,0,0-14.93,14.86,115,115,0,0,0-13.71,19.87q-2.88,3.76-5.59,7.66c-1.48,2.14-2.91,4.3-4.31,6.48a329.26,329.26,0,0,0-31.81,57.38,16.65,16.65,0,0,0-1.1,1.87,61.08,61.08,0,0,0-2.43,5.91c0,.12-.09.22-.13.34l-2.95,4.28-.23.55s0-.17,0-.2c-.64,1.16-1.27,2.25-1.92,3.63a112.92,112.92,0,0,0-5.69,15,192.85,192.85,0,0,0-4.84,19.7,86.52,86.52,0,0,0-1.44,11.45c-.18,3.57-.4,7.09-.83,10.29a19.71,19.71,0,0,0,0,3.34,47.74,47.74,0,0,1,.17,8.75,66.35,66.35,0,0,0,.23,9.11c.09,2.46.23,6.1.35,9.25,0,.26,0,.52,0,.78a8.94,8.94,0,0,1-.19,2.23c-.6.15-.63,2.43,0,6.37.86,6.19,1.81,12.65,3.24,19.59a95.44,95.44,0,0,0,2.88,10.92c.56,1.8,1.11,3.59,1.67,5.38l2,5.29a30.91,30.91,0,0,0,2.65,5.65c.93,1.61,1.83,3.14,2.7,4.64a36.69,36.69,0,0,0,2.61,4.34,56.84,56.84,0,0,0,5.13,6.73c2.08,2,4.2,4.09,6.14,6.17,1.93,1.78,4.52,3.6,6.84,5.38,1.9,1.56,3.12,2,8,4.29,17.85,10.11,39.28,13.17,59.53,12.52A164.18,164.18,0,0,0,505.25,630a6.85,6.85,0,0,0,3.06-1.71c2.9-.64,5.77-1.3,8.6-2a91.68,91.68,0,0,0,15.9-5.3c2.12-.33,5.87-1.86,9.85-4.43l10-6.56.58-1a34.55,34.55,0,0,0,6.57-5.69,9.45,9.45,0,0,0,1.64-2.56l.42-.39a64.72,64.72,0,0,0,7.87-8.87A60.74,60.74,0,0,0,579.06,572c.44-1.76.79-3.56,1.13-5.36s.48-3.68.58-5.4c0-.88.07-1.77.11-2.65A93.71,93.71,0,0,0,580.07,525.1Z" style="fill: #25A1B0; fill-opacity: 1;"></path><path class="cls-1" d="M450.5,536.23a29.58,29.58,0,0,0,2,2.69c.8.55-1.27-2.49-2-4.07a51.85,51.85,0,0,1-2.9-8.22,40.06,40.06,0,0,1-1-4.53c-.17-.74-.36-1.49-.49-2.22-1.3-6.79-1.49-13.22-2.37-12.31a11,11,0,0,0-.57,2.88,39.75,39.75,0,0,0-.1,4.39c.28,2.53.59,2.94.82,2.71s.31.14.5.7c.12.8.69,4.43,1,6.5a34.45,34.45,0,0,0,1.07,5.16,35.37,35.37,0,0,0,2.93,6.38c1.35,2,1.41,1.55.78.1C449.63,535.25,449.71,535.14,450.5,536.23Z" style="fill: #25A1B0; fill-opacity: 1;"></path><path class="cls-1" d="M481.2,358.21c.17-.13.92-1,1.39-1.6,4-5.38,7.4-10.46,7.13-11.05-.07-.12-1.09,1-1.89,1.82-.23.24-1.37,1.76-1.71,2.28-2,3.06-4,6.16-5.59,8.72C480.13,359,480.81,358.49,481.2,358.21Z" style="fill: #25A1B0; fill-opacity: 1;"></path><path class="cls-1" d="M459.15,387l-.24.16a2.53,2.53,0,0,0-.12.23Z" style="fill: #25A1B0; fill-opacity: 1;"></path><path class="cls-1" d="M461.5,381.77c-.56.61-1.36,1.68-2.06,2.64-1.51,2.08-2.5,4.08-1.83,3.65l1.3-.86c1.13-2.3,4-5.76,5.06-7.92C463.14,380.1,462.41,380.78,461.5,381.77Z" style="fill: #25A1B0; fill-opacity: 1;"></path><path class="cls-1" d="M473.81,615l.41.07-.14-.1Z" style="fill: #25A1B0; fill-opacity: 1;"></path><path class="cls-1" d="M562.6,463.36c-.12-.29-.24-.57-.37-.86l.12.43C562.43,463.07,562.52,463.21,562.6,463.36Z" style="fill: #25A1B0; fill-opacity: 1;"></path><path class="cls-1" d="M556.79,511.16c-.06-.38-.08-.77-.18-1.16-.41-1.62-.79-3.4-1.29-4a6.82,6.82,0,0,0,.11,1c.15.55.3,1.21.44,1.65C556.2,509.51,556.49,510.32,556.79,511.16Z" style="fill: #25A1B0; fill-opacity: 1;"></path><path class="cls-1" d="M562,601.8c-.25.27-.44.58-.34.54a3.91,3.91,0,0,0,1-.66c1.75-1.77,3.51-3.59,5.12-5.56C566.27,597,564.91,598.43,562,601.8Z" style="fill: #25A1B0; fill-opacity: 1;"></path><path class="cls-1" d="M582.61,544.62c0-.11-.12.46-.15.9a31.45,31.45,0,0,0,.07,5.14c0,.3.11.29.24.59,0-1.82,0-3.54,0-5.27A6.71,6.71,0,0,0,582.61,544.62Z" style="fill: #25A1B0; fill-opacity: 1;"></path><path class="cls-1" d="M460.92,597.46l.12.07.62.12Z" style="fill: #25A1B0; fill-opacity: 1;"></path><path class="cls-1" d="M461,597.53l-.5-.09.54.15h.05l.49.06-.56-.11Z" style="fill: #25A1B0; fill-opacity: 1;"></path><path class="cls-1" d="M532.23,578.06l.1-.3C531.18,579,531.14,579.06,532.23,578.06Z" style="fill: #25A1B0; fill-opacity: 1;"></path><path class="cls-1" d="M532.39,577.6l-.06.16.52-.53Z" style="fill: #25A1B0; fill-opacity: 1;"></path><path class="cls-1" d="M390.77,483.05l.11.2c0-.21,0-.42.06-.63Z" style="fill: #25A1B0; fill-opacity: 1;"></path><path class="cls-1" d="M391.05,483.6a3.78,3.78,0,0,1-.17-.35c-.05.5-.07,1-.11,1.49Z" style="fill: #25A1B0; fill-opacity: 1;"></path><path class="cls-1" d="M390.65,493.17l-.1-.35C390.45,493.83,390.48,494,390.65,493.17Z" style="fill: #25A1B0; fill-opacity: 1;"></path><path class="cls-1" d="M390.51,492.69l0,.13c0-.13,0-.28.05-.44Z" style="fill: #25A1B0; fill-opacity: 1;"></path><polygon class="cls-1" points="450.14 333.15 449.36 334.02 449.39 334.24 450.14 333.15" style="fill: #25A1B0; fill-opacity: 1;"></polygon><path class="cls-1" d="M515.88,376.23l.06.21C516.51,377.13,516.5,377.07,515.88,376.23Z" style="fill: #25A1B0; fill-opacity: 1;"></path><path class="cls-1" d="M516,376.68l-.07-.24-.18-.23Z" style="fill: #25A1B0; fill-opacity: 1;"></path><path class="cls-1" d="M510.71,409.19l-.27-.42" style="fill: #25A1B0; fill-opacity: 1;"></path><path class="cls-1" d="M535.77,455l-.13-.54C535.36,454,535.4,454.13,535.77,455Z" style="fill: #25A1B0; fill-opacity: 1;"></path><path class="cls-1" d="M535.63,454.39v0l.24.41Z" style="fill: #25A1B0; fill-opacity: 1;"></path><path class="cls-1" d="M493.91,424.13l-.27-.25.15.26S493.93,424.15,493.91,424.13Z" style="fill: #25A1B0; fill-opacity: 1;"></path></svg> <svg y="437" viewBox="0.8100000023841858 2.7100000381469727 215.77999877929688 11.019999504089355" x="179" height="11" width="215" style="overflow: visible;"><g fill="#25A1B0" fill-opacity="1" style=""><path d="M6.87 3.11L6.87 3.11Q8.23 3.11 9.21 3.63Q10.19 4.15 10.72 5.10Q11.25 6.05 11.25 7.35L11.25 7.35Q11.22 9.29 10.43 10.74L10.43 10.74Q9.65 12.17 8.28 12.95Q6.92 13.73 5.19 13.73L5.19 13.73Q3.72 13.73 2.70 13.13L2.70 13.13Q1.79 12.61 1.30 11.65Q0.81 10.69 0.81 9.38L0.81 9.38Q0.81 7.62 1.59 6.16L1.59 6.16Q2.36 4.69 3.74 3.90Q5.13 3.11 6.87 3.11ZM6.80 4.23L6.80 4.23Q5.35 4.23 4.32 4.89L4.32 4.89Q3.64 5.32 3.17 6.06Q2.70 6.80 2.46 7.68Q2.21 8.57 2.21 9.46L2.21 9.46Q2.21 10.99 2.99 11.79Q3.77 12.59 5.26 12.59L5.26 12.59Q6.70 12.59 7.72 11.95L7.72 11.95Q8.39 11.53 8.87 10.81Q9.35 10.10 9.60 9.21Q9.85 8.31 9.85 7.38L9.85 7.38Q9.85 5.86 9.06 5.05Q8.26 4.23 6.80 4.23ZM24.53 8.58L24.53 8.58Q24.53 9.53 24.24 10.55Q23.95 11.58 23.41 12.30L23.41 12.30Q22.86 13.01 22.07 13.37Q21.27 13.73 20.26 13.73L20.26 13.73Q18.83 13.73 17.99 12.86Q17.16 12.00 17.16 10.51L17.16 10.51Q17.19 8.99 17.70 7.86L17.70 7.86Q18.21 6.70 19.12 6.11Q20.03 5.52 21.37 5.52L21.37 5.52Q22.91 5.52 23.72 6.32Q24.53 7.12 24.53 8.58ZM23.17 8.58L23.17 8.58Q23.17 6.48 21.35 6.48L21.35 6.48Q20.37 6.48 19.77 6.99L19.77 6.99Q19.38 7.32 19.10 7.91Q18.81 8.50 18.66 9.20Q18.51 9.89 18.51 10.53L18.51 10.53Q18.51 11.62 18.98 12.18Q19.45 12.75 20.34 12.75L20.34 12.75Q21.10 12.75 21.56 12.50Q22.01 12.24 22.36 11.70L22.36 11.70Q22.70 11.16 22.92 10.33Q23.13 9.50 23.17 8.58ZM33.33 9.90L32.10 10.81L31.57 13.58L30.26 13.58L32.37 2.71L33.69 2.71L32.38 9.43L33.87 8.03L36.51 5.65L38.14 5.65L34.26 9.06L36.72 13.58L35.29 13.58L33.33 9.90ZM57.18 12.22L57.16 12.22Q56.55 13.07 55.94 13.39Q55.32 13.72 54.48 13.72L54.48 13.72Q53.40 13.72 52.85 13.18Q52.31 12.65 52.31 11.64L52.31 11.64Q52.31 11.48 52.33 11.29Q52.34 11.11 52.38 10.89Q52.41 10.68 52.46 10.44L52.46 10.44L53.39 5.65L54.72 5.65L53.79 10.38Q53.66 11.02 53.66 11.48L53.66 11.48Q53.66 12.70 54.97 12.70L54.97 12.70Q55.59 12.70 56.11 12.38Q56.64 12.06 57.01 11.48Q57.38 10.89 57.54 10.09L57.54 10.09L58.40 5.65L59.72 5.65L58.50 11.89Q58.43 12.23 58.36 12.66Q58.29 13.08 58.22 13.58L58.22 13.58L56.97 13.58Q56.97 13.52 57.01 13.27Q57.05 13.02 57.10 12.72Q57.15 12.42 57.18 12.22L57.18 12.22ZM80.97 5.65L82.40 5.65L77.90 13.58L76.34 13.58L75.01 5.65L76.38 5.65L77.12 10.81Q77.14 10.97 77.16 11.18Q77.18 11.39 77.21 11.63Q77.23 11.87 77.26 12.16L77.26 12.16L77.29 12.55L77.48 12.16Q77.64 11.81 77.81 11.48Q77.98 11.15 78.16 10.83L78.16 10.83L80.97 5.65ZM94.30 9.90L88.56 9.90Q88.52 10.14 88.50 10.72L88.50 10.72Q88.50 11.70 88.98 12.22Q89.47 12.74 90.45 12.74L90.45 12.74Q91.16 12.74 91.74 12.39Q92.32 12.03 92.64 11.43L92.64 11.43L93.65 11.89Q93.12 12.85 92.29 13.29Q91.47 13.73 90.30 13.73L90.30 13.73Q88.83 13.73 88.01 12.91Q87.19 12.09 87.19 10.61L87.19 10.61Q87.19 9.16 87.71 7.97L87.71 7.97Q88.23 6.80 89.18 6.16Q90.12 5.51 91.30 5.51L91.30 5.51Q92.80 5.51 93.64 6.26Q94.47 7.02 94.47 8.39L94.47 8.39Q94.47 9.16 94.30 9.90L94.30 9.90ZM88.74 8.88L88.74 8.88L93.13 8.88L93.16 8.36Q93.16 7.45 92.69 6.97Q92.22 6.48 91.33 6.48L91.33 6.48Q90.35 6.48 89.68 7.11Q89.01 7.73 88.74 8.88ZM105.53 5.61L105.29 6.71Q104.98 6.61 104.63 6.61L104.63 6.61Q104.12 6.61 103.66 6.98Q103.21 7.35 102.88 7.99Q102.55 8.63 102.40 9.45L102.40 9.45L101.60 13.58L100.28 13.58L101.46 7.50Q101.51 7.24 101.56 6.99Q101.60 6.74 101.65 6.49L101.65 6.49Q101.68 6.28 101.72 6.07Q101.75 5.86 101.78 5.65L101.78 5.65L103.02 5.65L102.83 6.89L102.77 7.27L102.80 7.27Q103.28 6.30 103.75 5.90Q104.22 5.51 104.83 5.51L104.83 5.51Q105.16 5.51 105.53 5.61L105.53 5.61ZM112.96 13.73L112.96 13.73Q111.81 13.73 111.17 13.04Q110.53 12.35 110.53 11.14L110.53 11.14Q110.53 9.66 110.98 8.25L110.98 8.25Q111.44 6.86 112.25 6.19Q113.06 5.52 114.33 5.52L114.33 5.52Q115.23 5.52 115.80 5.90Q116.37 6.28 116.60 6.97L116.60 6.97L116.64 6.97Q116.69 6.67 116.74 6.37Q116.79 6.07 116.84 5.78L116.84 5.78L117.44 2.71L118.76 2.71L116.97 11.95Q116.87 12.46 116.80 12.87Q116.73 13.28 116.69 13.58L116.69 13.58L115.43 13.58Q115.43 13.21 115.58 12.41L115.58 12.41L115.55 12.41Q115.01 13.10 114.42 13.42Q113.83 13.73 112.96 13.73ZM113.34 12.71L113.34 12.71Q114.75 12.71 115.46 11.52L115.46 11.52Q115.70 11.13 115.87 10.58Q116.04 10.03 116.14 9.46Q116.23 8.89 116.23 8.42L116.23 8.42Q116.23 7.51 115.76 7.00Q115.30 6.49 114.47 6.49L114.47 6.49Q113.58 6.49 113.06 7.02L113.06 7.02Q112.71 7.37 112.45 8.05Q112.19 8.73 112.05 9.50Q111.91 10.28 111.91 10.91L111.91 10.91Q111.91 11.81 112.25 12.26Q112.60 12.71 113.34 12.71ZM125.72 2.71L127.04 2.71L126.79 3.97L125.47 3.97L125.72 2.71ZM125.15 5.65L126.46 5.65L124.92 13.58L123.61 13.58L125.15 5.65ZM139.31 9.90L133.57 9.90Q133.53 10.14 133.51 10.72L133.51 10.72Q133.51 11.70 134.00 12.22Q134.48 12.74 135.46 12.74L135.46 12.74Q136.17 12.74 136.75 12.39Q137.33 12.03 137.65 11.43L137.65 11.43L138.66 11.89Q138.13 12.85 137.31 13.29Q136.48 13.73 135.31 13.73L135.31 13.73Q133.84 13.73 133.02 12.91Q132.20 12.09 132.20 10.61L132.20 10.61Q132.20 9.16 132.72 7.97L132.72 7.97Q133.24 6.80 134.19 6.16Q135.13 5.51 136.31 5.51L136.31 5.51Q137.81 5.51 138.65 6.26Q139.48 7.02 139.48 8.39L139.48 8.39Q139.48 9.16 139.31 9.90L139.31 9.90ZM133.75 8.88L133.75 8.88L138.14 8.88L138.17 8.36Q138.17 7.45 137.70 6.97Q137.23 6.48 136.34 6.48L136.34 6.48Q135.36 6.48 134.69 7.11Q134.02 7.73 133.75 8.88ZM147.47 9.14L147.47 9.14L146.61 13.58L145.29 13.58L146.51 7.35Q146.58 7.00 146.65 6.58Q146.72 6.15 146.79 5.65L146.79 5.65L148.04 5.65Q148.04 5.71 148.00 5.96Q147.96 6.21 147.92 6.51Q147.87 6.80 147.83 7.01L147.83 7.01L147.85 7.01Q148.46 6.17 149.07 5.84Q149.69 5.52 150.53 5.52L150.53 5.52Q151.61 5.52 152.16 6.05Q152.70 6.58 152.70 7.60L152.70 7.60Q152.70 7.83 152.67 8.13Q152.63 8.43 152.55 8.80L152.55 8.80L151.62 13.58L150.29 13.58L151.22 8.85Q151.35 8.20 151.35 7.76L151.35 7.76Q151.35 6.53 150.04 6.53L150.04 6.53Q149.42 6.53 148.90 6.85Q148.37 7.17 148.00 7.75Q147.63 8.33 147.47 9.14ZM160.40 13.73L160.40 13.73Q159.78 13.73 159.42 13.35Q159.06 12.98 159.06 12.36L159.06 12.36Q159.06 11.96 159.17 11.41L159.17 11.41L160.10 6.61L159.18 6.61L159.37 5.65L160.30 5.65L161.07 3.88L161.95 3.88L161.61 5.65L163.07 5.65L162.88 6.61L161.42 6.61L160.50 11.34Q160.41 11.78 160.41 12.03L160.41 12.03Q160.41 12.36 160.58 12.52Q160.74 12.68 161.07 12.68L161.07 12.68Q161.36 12.68 161.80 12.58L161.80 12.58L161.67 13.55Q160.94 13.73 160.40 13.73ZM179.50 7.01L179.52 7.01Q180.13 6.17 180.74 5.84Q181.35 5.52 182.20 5.52L182.20 5.52Q183.28 5.52 183.83 6.05Q184.37 6.58 184.37 7.60L184.37 7.60Q184.37 7.83 184.34 8.13Q184.30 8.43 184.22 8.80L184.22 8.80L183.29 13.58L181.96 13.58L182.89 8.85Q183.02 8.20 183.02 7.76L183.02 7.76Q183.02 6.53 181.71 6.53L181.71 6.53Q181.09 6.53 180.57 6.85Q180.04 7.17 179.67 7.75Q179.30 8.33 179.14 9.14L179.14 9.14L178.28 13.58L176.97 13.58L179.08 2.71L180.40 2.71L179.85 5.54Q179.78 5.90 179.69 6.27Q179.60 6.64 179.50 7.01L179.50 7.01ZM197.67 9.90L191.94 9.90Q191.89 10.14 191.87 10.72L191.87 10.72Q191.87 11.70 192.36 12.22Q192.84 12.74 193.83 12.74L193.83 12.74Q194.54 12.74 195.11 12.39Q195.69 12.03 196.02 11.43L196.02 11.43L197.03 11.89Q196.49 12.85 195.67 13.29Q194.84 13.73 193.67 13.73L193.67 13.73Q192.20 13.73 191.38 12.91Q190.57 12.09 190.57 10.61L190.57 10.61Q190.57 9.16 191.09 7.97L191.09 7.97Q191.61 6.80 192.55 6.16Q193.50 5.51 194.68 5.51L194.68 5.51Q196.18 5.51 197.01 6.26Q197.85 7.02 197.85 8.39L197.85 8.39Q197.85 9.16 197.67 9.90L197.67 9.90ZM192.11 8.88L192.11 8.88L196.51 8.88L196.54 8.36Q196.54 7.45 196.06 6.97Q195.59 6.48 194.70 6.48L194.70 6.48Q193.72 6.48 193.05 7.11Q192.38 7.73 192.11 8.88ZM205.42 13.73L205.42 13.73Q204.79 13.73 204.44 13.35Q204.08 12.98 204.08 12.36L204.08 12.36Q204.08 11.96 204.19 11.41L204.19 11.41L205.12 6.61L204.20 6.61L204.39 5.65L205.32 5.65L206.09 3.88L206.97 3.88L206.63 5.65L208.09 5.65L207.90 6.61L206.44 6.61L205.52 11.34Q205.43 11.78 205.43 12.03L205.43 12.03Q205.43 12.36 205.60 12.52Q205.76 12.68 206.09 12.68L206.09 12.68Q206.38 12.68 206.82 12.58L206.82 12.58L206.68 13.55Q205.96 13.73 205.42 13.73ZM215.16 3.26L216.59 3.26L214.98 10.67L213.90 10.67L215.16 3.26ZM213.43 12.11L214.85 12.11L214.56 13.58L213.13 13.58L213.43 12.11Z" transform="translate(0, 0)"></path></g></svg> <svg y="392" viewBox="1.4600000381469727 10.59000015258789 391.8699951171875 28.560001373291016" x="91" height="28" width="391" style="overflow: visible;"><g fill="#545454" fill-opacity="1" style=""><path d="M13.93 38.77L1.46 38.77L1.46 36.49L4.41 35.99L4.41 15.27L1.46 14.76L1.46 12.47L4.41 12.47L12.81 12.47Q16.93 12.47 19.25 14.25Q21.57 16.02 21.57 19.58L21.57 19.58Q21.57 21.34 20.46 22.72Q19.35 24.10 17.52 24.77L17.52 24.77Q19.11 25.09 20.25 26.04Q21.39 26.99 22.01 28.36Q22.64 29.72 22.64 31.35L22.64 31.35Q22.64 34.96 20.29 36.86Q17.94 38.77 13.93 38.77L13.93 38.77ZM7.97 26.43L7.97 35.99L13.93 35.99Q16.37 35.99 17.71 34.79Q19.06 33.59 19.06 31.38L19.06 31.38Q19.06 29.83 18.56 28.73Q18.07 27.62 17.05 27.03Q16.02 26.43 14.47 26.43L14.47 26.43L7.97 26.43ZM7.97 15.27L7.97 23.65L13.73 23.65Q15.65 23.65 16.83 22.54Q18.01 21.43 18.01 19.51L18.01 19.51Q18.01 17.38 16.68 16.32Q15.34 15.27 12.81 15.27L12.81 15.27L7.97 15.27ZM35.82 39.15L35.82 39.15Q32.64 39.15 30.85 37.11Q29.06 35.07 29.06 30.75L29.06 30.75L29.06 22.02L26.82 21.52L26.82 19.22L29.06 19.22L32.62 19.22L32.62 30.79Q32.62 33.91 33.54 35.08Q34.47 36.26 36.42 36.26L36.42 36.26Q38.31 36.26 39.55 35.49Q40.79 34.72 41.42 33.31L41.42 33.31L41.42 22.02L38.80 21.52L38.80 19.22L41.42 19.22L44.98 19.22L44.98 35.99L47.22 36.49L47.22 38.77L41.78 38.77L41.55 35.88Q40.63 37.45 39.17 38.30Q37.72 39.15 35.82 39.15ZM61.04 38.77L51.59 38.77L51.59 36.49L54.53 35.99L54.53 22.02L51.59 21.52L51.59 19.22L58.09 19.22L58.09 35.99L61.04 36.49L61.04 38.77ZM58.09 14.40L54.35 14.40L54.35 10.59L58.09 10.59L58.09 14.40ZM72.39 39.08L72.39 39.08Q70.23 39.08 68.95 37.80Q67.68 36.53 67.68 33.73L67.68 33.73L67.68 21.86L64.59 21.86L64.59 19.22L67.68 19.22L67.68 14.51L71.24 14.51L71.24 19.22L75.48 19.22L75.48 21.86L71.24 21.86L71.24 33.73Q71.24 35.14 71.80 35.81Q72.36 36.48 73.30 36.48L73.30 36.48Q73.93 36.48 74.71 36.36Q75.48 36.24 75.92 36.15L75.92 36.15L76.40 38.48Q75.63 38.72 74.50 38.90Q73.37 39.08 72.39 39.08ZM89.23 39.15L89.23 39.15Q86.52 39.15 84.51 37.91Q82.51 36.67 81.41 34.47Q80.32 32.27 80.32 29.38L80.32 29.38L80.32 28.58Q80.32 25.80 81.47 23.60Q82.61 21.41 84.52 20.14Q86.43 18.86 88.68 18.86L88.68 18.86Q91.32 18.86 93.10 19.95Q94.88 21.03 95.78 22.99Q96.69 24.95 96.69 27.61L96.69 27.61L96.69 29.83L84.01 29.83L83.95 29.92Q83.99 31.80 84.61 33.25Q85.23 34.71 86.41 35.54Q87.58 36.37 89.23 36.37L89.23 36.37Q91.03 36.37 92.40 35.85Q93.76 35.34 94.75 34.43L94.75 34.43L96.15 36.75Q95.10 37.76 93.37 38.45Q91.65 39.15 89.23 39.15ZM84.08 26.96L84.11 27.05L93.13 27.05L93.13 26.58Q93.13 25.17 92.63 24.06Q92.14 22.94 91.15 22.30Q90.17 21.66 88.68 21.66L88.68 21.66Q87.49 21.66 86.52 22.36Q85.54 23.05 84.91 24.25Q84.28 25.44 84.08 26.96L84.08 26.96ZM110.90 38.77L101.45 38.77L101.45 36.49L104.40 35.99L104.40 22.02L101.45 21.52L101.45 19.22L107.58 19.22L107.83 22.13Q108.81 20.58 110.28 19.72Q111.75 18.86 113.63 18.86L113.63 18.86Q116.79 18.86 118.52 20.71Q120.26 22.56 120.26 26.43L120.26 26.43L120.26 35.99L123.20 36.49L123.20 38.77L113.76 38.77L113.76 36.49L116.70 35.99L116.70 26.50Q116.70 23.92 115.68 22.84Q114.66 21.75 112.56 21.75L112.56 21.75Q111.03 21.75 109.84 22.49Q108.66 23.23 107.96 24.52L107.96 24.52L107.96 35.99L110.90 36.49L110.90 38.77ZM139.71 39.15L139.71 39.15Q136.06 39.15 133.39 37.46Q130.71 35.77 129.27 32.77Q127.82 29.77 127.82 25.83L127.82 25.83L127.82 25.40Q127.82 21.43 129.28 18.44Q130.73 15.45 133.26 13.77Q135.79 12.09 139.01 12.09L139.01 12.09Q142.08 12.09 144.22 12.79Q146.36 13.50 147.88 14.69L147.88 14.69L147.88 20.00L144.95 20.00L144.57 16.19Q143.69 15.61 142.40 15.31Q141.12 15.01 139.37 15.01L139.37 15.01Q137.11 15.01 135.30 16.31Q133.50 17.61 132.45 19.94Q131.40 22.26 131.40 25.37L131.40 25.37L131.40 25.83Q131.40 28.98 132.37 31.32Q133.33 33.66 135.19 34.95Q137.06 36.24 139.71 36.24L139.71 36.24Q141.52 36.24 142.76 35.93Q144.01 35.61 144.97 35.10L144.97 35.10L144.97 28.92L139.93 28.74L139.93 26.12L148.53 26.12L148.53 36.31Q147.39 37.38 145.27 38.26Q143.14 39.15 139.71 39.15ZM163.48 39.15L163.48 39.15Q160.77 39.15 158.77 37.91Q156.76 36.67 155.67 34.47Q154.57 32.27 154.57 29.38L154.57 29.38L154.57 28.58Q154.57 25.80 155.72 23.60Q156.87 21.41 158.78 20.14Q160.68 18.86 162.94 18.86L162.94 18.86Q165.58 18.86 167.36 19.95Q169.14 21.03 170.04 22.99Q170.94 24.95 170.94 27.61L170.94 27.61L170.94 29.83L158.26 29.83L158.21 29.92Q158.24 31.80 158.87 33.25Q159.49 34.71 160.66 35.54Q161.84 36.37 163.48 36.37L163.48 36.37Q165.29 36.37 166.65 35.85Q168.02 35.34 169.01 34.43L169.01 34.43L170.40 36.75Q169.35 37.76 167.63 38.45Q165.90 39.15 163.48 39.15ZM158.33 26.96L158.37 27.05L167.38 27.05L167.38 26.58Q167.38 25.17 166.89 24.06Q166.39 22.94 165.41 22.30Q164.42 21.66 162.94 21.66L162.94 21.66Q161.75 21.66 160.77 22.36Q159.80 23.05 159.16 24.25Q158.53 25.44 158.33 26.96L158.33 26.96ZM185.70 38.77L182.64 38.77L177.50 21.77L175.31 21.52L175.31 19.22L183.39 19.22L183.39 21.52L180.98 21.91L183.67 31.65L184.29 33.96L184.40 33.96L185.19 31.65L189.44 19.22L192.44 19.22L196.48 31.62L197.35 34.36L197.46 34.36L198.31 31.62L201.04 21.90L198.58 21.52L198.58 19.22L206.47 19.22L206.47 21.52L204.31 21.82L199.25 38.77L195.87 38.77L191.91 27.03L190.97 23.88L190.86 23.90L189.94 27.03L185.70 38.77ZM219.12 39.15L219.12 39.15Q216.41 39.15 214.45 37.88Q212.48 36.60 211.42 34.35Q210.35 32.10 210.35 29.21L210.35 29.21L210.35 28.82Q210.35 25.93 211.42 23.68Q212.48 21.43 214.45 20.14Q216.41 18.86 219.08 18.86L219.08 18.86Q221.79 18.86 223.75 20.14Q225.71 21.43 226.78 23.67Q227.84 25.91 227.84 28.82L227.84 28.82L227.84 29.21Q227.84 32.12 226.78 34.37Q225.71 36.62 223.76 37.89Q221.81 39.15 219.12 39.15ZM219.12 36.37L219.12 36.37Q220.81 36.37 221.96 35.44Q223.11 34.51 223.70 32.89Q224.28 31.27 224.28 29.21L224.28 29.21L224.28 28.82Q224.28 26.76 223.70 25.14Q223.11 23.52 221.95 22.59Q220.80 21.66 219.08 21.66L219.08 21.66Q217.38 21.66 216.22 22.59Q215.07 23.52 214.49 25.14Q213.91 26.76 213.91 28.82L213.91 28.82L213.91 29.21Q213.91 31.27 214.49 32.89Q215.07 34.51 216.23 35.44Q217.40 36.37 219.12 36.37ZM242.05 39.15L242.05 39.15Q239.34 39.15 237.38 37.88Q235.42 36.60 234.36 34.35Q233.29 32.10 233.29 29.21L233.29 29.21L233.29 28.82Q233.29 25.93 234.36 23.68Q235.42 21.43 237.38 20.14Q239.34 18.86 242.02 18.86L242.02 18.86Q244.73 18.86 246.69 20.14Q248.65 21.43 249.71 23.67Q250.78 25.91 250.78 28.82L250.78 28.82L250.78 29.21Q250.78 32.12 249.71 34.37Q248.65 36.62 246.70 37.89Q244.75 39.15 242.05 39.15ZM242.05 36.37L242.05 36.37Q243.75 36.37 244.90 35.44Q246.05 34.51 246.63 32.89Q247.22 31.27 247.22 29.21L247.22 29.21L247.22 28.82Q247.22 26.76 246.63 25.14Q246.05 23.52 244.89 22.59Q243.73 21.66 242.02 21.66L242.02 21.66Q240.32 21.66 239.16 22.59Q238.01 23.52 237.43 25.14Q236.85 26.76 236.85 28.82L236.85 28.82L236.85 29.21Q236.85 31.27 237.43 32.89Q238.01 34.51 239.17 35.44Q240.34 36.37 242.05 36.37ZM264.98 38.77L255.53 38.77L255.53 36.49L258.47 35.99L258.47 22.02L255.53 21.52L255.53 19.22L261.65 19.22L261.90 22.13Q262.88 20.58 264.35 19.72Q265.82 18.86 267.70 18.86L267.70 18.86Q270.86 18.86 272.60 20.71Q274.33 22.56 274.33 26.43L274.33 26.43L274.33 35.99L277.28 36.49L277.28 38.77L267.83 38.77L267.83 36.49L270.77 35.99L270.77 26.50Q270.77 23.92 269.75 22.84Q268.73 21.75 266.64 21.75L266.64 21.75Q265.10 21.75 263.92 22.49Q262.73 23.23 262.03 24.52L262.03 24.52L262.03 35.99L264.98 36.49L264.98 38.77ZM293.30 38.77L290.12 38.77L283.98 15.03L281.75 14.76L281.75 12.47L290.28 12.47L290.28 14.76L287.55 15.18L290.99 29.65L291.78 33.03L291.89 33.04L292.94 29.67L298.23 12.47L301.36 12.47L306.70 29.67L307.73 33.24L307.84 33.24L308.78 29.67L312.18 15.18L309.23 14.76L309.23 12.47L317.62 12.47L317.62 14.76L315.54 15.03L309.65 38.77L306.27 38.77L300.56 20.56L299.84 17.90L299.73 17.90L299.02 20.56L293.30 38.77ZM327.98 39.15L327.98 39.15Q324.93 39.15 323.34 37.66Q321.75 36.17 321.75 33.46L321.75 33.46Q321.75 31.60 322.77 30.22Q323.79 28.83 325.72 28.07Q327.65 27.30 330.35 27.30L330.35 27.30L333.83 27.30L333.83 25.38Q333.83 23.61 332.76 22.64Q331.68 21.66 329.73 21.66L329.73 21.66Q328.50 21.66 327.60 21.96Q326.70 22.26 325.96 22.78L325.96 22.78L325.58 25.51L322.83 25.51L322.83 21.03Q324.15 19.96 325.90 19.41Q327.65 18.86 329.79 18.86L329.79 18.86Q333.35 18.86 335.37 20.56Q337.39 22.26 337.39 25.42L337.39 25.42L337.39 34.83Q337.39 35.21 337.40 35.57Q337.41 35.93 337.45 36.30L337.45 36.30L339.34 36.49L339.34 38.77L334.23 38.77Q334.07 37.98 333.98 37.34Q333.89 36.71 333.85 36.08L333.85 36.08Q332.82 37.40 331.28 38.27Q329.73 39.15 327.98 39.15ZM328.50 36.17L328.50 36.17Q330.27 36.17 331.74 35.32Q333.20 34.47 333.83 33.28L333.83 33.28L333.83 29.74L330.22 29.74Q327.76 29.74 326.53 30.91Q325.31 32.09 325.31 33.53L325.31 33.53Q325.31 34.81 326.10 35.49Q326.90 36.17 328.50 36.17ZM351.01 39.08L351.01 39.08Q348.84 39.08 347.57 37.80Q346.29 36.53 346.29 33.73L346.29 33.73L346.29 21.86L343.20 21.86L343.20 19.22L346.29 19.22L346.29 14.51L349.85 14.51L349.85 19.22L354.10 19.22L354.10 21.86L349.85 21.86L349.85 33.73Q349.85 35.14 350.41 35.81Q350.97 36.48 351.91 36.48L351.91 36.48Q352.54 36.48 353.32 36.36Q354.10 36.24 354.53 36.15L354.53 36.15L355.02 38.48Q354.24 38.72 353.11 38.90Q351.98 39.08 351.01 39.08ZM367.84 39.15L367.84 39.15Q365.13 39.15 363.13 37.91Q361.12 36.67 360.03 34.47Q358.94 32.27 358.94 29.38L358.94 29.38L358.94 28.58Q358.94 25.80 360.08 23.60Q361.23 21.41 363.14 20.14Q365.04 18.86 367.30 18.86L367.30 18.86Q369.94 18.86 371.72 19.95Q373.50 21.03 374.40 22.99Q375.30 24.95 375.30 27.61L375.30 27.61L375.30 29.83L362.62 29.83L362.57 29.92Q362.60 31.80 363.23 33.25Q363.85 34.71 365.02 35.54Q366.20 36.37 367.84 36.37L367.84 36.37Q369.65 36.37 371.01 35.85Q372.38 35.34 373.37 34.43L373.37 34.43L374.76 36.75Q373.71 37.76 371.99 38.45Q370.26 39.15 367.84 39.15ZM362.69 26.96L362.73 27.05L371.74 27.05L371.74 26.58Q371.74 25.17 371.25 24.06Q370.75 22.94 369.77 22.30Q368.78 21.66 367.30 21.66L367.30 21.66Q366.11 21.66 365.13 22.36Q364.16 23.05 363.52 24.25Q362.89 25.44 362.69 26.96L362.69 26.96ZM389.48 38.77L380.03 38.77L380.03 36.49L382.98 35.99L382.98 22.02L380.03 21.52L380.03 19.22L386.16 19.22L386.46 21.72L386.50 22.06Q387.33 20.56 388.55 19.71Q389.77 18.86 391.34 18.86L391.34 18.86Q391.90 18.86 392.49 18.96Q393.08 19.06 393.33 19.15L393.33 19.15L392.86 22.46L390.38 22.31Q388.97 22.22 388.02 22.95Q387.06 23.69 386.54 24.91L386.54 24.91L386.54 35.99L389.48 36.49L389.48 38.77Z" transform="translate(0, 0)"></path></g></svg></svg>