<svg viewBox="0 0 400 160" xmlns="http://www.w3.org/2000/svg" font-family="'Segoe UI', Arial, sans-serif">
  <g transform="translate(10, 15)">
    <path d="M44 6 C44 6 18 38 18 56 C18 72 29 83 44 83 C59 83 70 72 70 56 C70 38 44 6 44 6 Z" fill="#e0f2fe" stroke="#0891b2" stroke-width="2"/>
    <circle cx="44" cy="54" r="13" fill="#f59e0b"/>
    <g stroke="#f59e0b" stroke-width="1.8" stroke-linecap="round">
      <line x1="44" y1="36" x2="44" y2="31"/>
      <line x1="44" y1="72" x2="44" y2="77"/>
      <line x1="26" y1="54" x2="21" y2="54"/>
      <line x1="62" y1="54" x2="67" y2="54"/>
      <line x1="31" y1="41" x2="27" y2="37"/>
      <line x1="57" y1="41" x2="61" y2="37"/>
      <line x1="31" y1="67" x2="27" y2="71"/>
      <line x1="57" y1="67" x2="61" y2="71"/>
    </g>
    <circle cx="30" cy="93" r="3" fill="#0891b2" opacity="0.4"/>
    <circle cx="44" cy="98" r="4" fill="#0891b2" opacity="0.6"/>
    <circle cx="58" cy="93" r="3" fill="#0891b2" opacity="0.4"/>
  </g>
  <text x="95" y="66" font-size="34" font-weight="700" fill="#1e3a8a" letter-spacing="-0.5" font-family="'Segoe UI', Arial, sans-serif">Sunny<tspan fill="#0891b2">Rain</tspan></text>
  <text x="97" y="90" font-size="12" fill="#64748b" letter-spacing="5" font-family="'Segoe UI', Arial, sans-serif">STUDIO</text>
  <line x1="95" y1="98" x2="340" y2="98" stroke="#0891b2" stroke-width="1" opacity="0.2"/>
</svg>