<svg viewBox="0 0 280 65" xmlns="http://www.w3.org/2000/svg" font-family="'Segoe UI', Arial, sans-serif">
  <g transform="translate(0, 10)">
    <path d="M18 2 C18 2 6 17 6 25 C6 32 11 37 18 37 C25 37 30 32 30 25 C30 17 18 2 18 2 Z" fill="#e0f2fe" stroke="#0891b2" stroke-width="1.5"/>
    <circle cx="18" cy="24" r="6" fill="#f59e0b"/>
    <g stroke="#f59e0b" stroke-width="1.2" stroke-linecap="round">
      <line x1="18" y1="14" x2="18" y2="11"/>
      <line x1="18" y1="34" x2="18" y2="37"/>
      <line x1="8"  y1="24" x2="5"  y2="24"/>
      <line x1="28" y1="24" x2="31" y2="24"/>
      <line x1="11" y1="17" x2="9"  y2="15"/>
      <line x1="25" y1="17" x2="27" y2="15"/>
      <line x1="11" y1="31" x2="9"  y2="33"/>
      <line x1="25" y1="31" x2="27" y2="33"/>
    </g>
    <circle cx="12" cy="43" r="2" fill="#0891b2" opacity="0.4"/>
    <circle cx="18" cy="46" r="2.5" fill="#0891b2" opacity="0.6"/>
    <circle cx="24" cy="43" r="2" fill="#0891b2" opacity="0.4"/>
  </g>
  <text x="38" y="23" font-size="9" fill="#94a3b8" letter-spacing="1" font-family="'Segoe UI', Arial, sans-serif">powered by</text>
  <text x="38" y="42" font-size="18" font-weight="700" fill="#1e3a8a" font-family="'Segoe UI', Arial, sans-serif">Sunny<tspan fill="#0891b2">Rain</tspan> <tspan font-size="12" font-weight="400" fill="#64748b" letter-spacing="2">STUDIO</tspan></text>
</svg>